<svg width="4871" height="917" viewBox="0 0 4871 917" fill="none" xmlns="http://www.w3.org/2000/svg">
<path d="M452.125 506.386C425.49 506.386 403.898 484.794 403.898 458.159C403.898 431.524 425.49 409.932 452.125 409.932C478.76 409.932 500.352 431.524 500.352 458.159C500.352 484.794 478.76 506.386 452.125 506.386Z" fill="#0F172A"/>
<path fill-rule="evenodd" clip-rule="evenodd" d="M36.1646 438.179C36.1646 412.379 49.9045 388.533 72.2244 375.594L118.258 348.907C162.898 323.029 190.378 275.336 190.378 223.737V170.498C190.378 144.66 204.158 120.784 226.53 107.859L379.563 19.4456C424.44 -6.48186 479.81 -6.48185 524.687 19.4456L795.966 176.175C840.606 201.965 868.085 249.497 868.085 300.92V615.398C868.085 666.822 840.606 714.353 795.966 740.144L524.687 896.873C479.81 922.8 424.44 922.8 379.563 896.873L108.284 740.144C63.6442 714.353 36.1646 666.822 36.1646 615.398V438.179ZM700.763 314.608C680.786 280.008 636.543 268.153 601.943 288.129L488.294 353.744C465.912 366.667 438.336 366.667 415.953 353.744L302.305 288.129C267.705 268.153 223.462 280.008 203.485 314.608C183.509 349.208 195.364 393.451 229.964 413.427L343.612 479.042C365.995 491.965 379.783 515.847 379.783 541.692V672.922C379.783 712.874 412.171 745.263 452.124 745.263C492.077 745.263 524.465 712.874 524.465 672.922V541.692C524.465 515.847 538.253 491.965 560.635 479.043L674.284 413.427C708.884 393.451 720.739 349.208 700.763 314.608Z" fill="#0F172A"/>
<path d="M0 229.08C0 189.127 32.3881 156.739 72.3409 156.739C112.294 156.739 144.682 189.127 144.682 229.08C144.682 269.033 112.294 301.421 72.3409 301.421C32.3881 301.421 0 269.033 0 229.08Z" fill="#0F172A"/>
<path d="M60.4018 227.53H73.7092C79.4662 227.53 83.9964 223.569 83.9964 218.316C83.9964 213.321 79.9381 209.273 73.5204 209.273H60.4018V227.53Z" fill="#A1E101"/>
<path fill-rule="evenodd" clip-rule="evenodd" d="M0 229.08C0 189.127 32.3881 156.739 72.3409 156.739C112.294 156.739 144.682 189.127 144.682 229.08C144.682 269.033 112.294 301.421 72.3409 301.421C32.3881 301.421 0 269.033 0 229.08ZM48.2273 198.938H75.4082C88.9043 198.938 96.4546 206.086 96.4546 215.473C96.4546 222.449 92.1132 227.616 85.5067 228.563V230.286C90.1312 231.578 95.8883 235.625 95.8883 244.496V259.222H83.5247V245.874C83.5247 241.137 80.3159 237.864 73.8982 237.864H60.4021V259.222H48.2273V198.938Z" fill="#A1E101"/>
<path d="M452.125 506.388C425.49 506.388 403.898 484.796 403.898 458.161C403.898 431.526 425.49 409.934 452.125 409.934C478.76 409.934 500.352 431.526 500.352 458.161C500.352 484.796 478.76 506.388 452.125 506.388Z" fill="#A1E101"/>
<path fill-rule="evenodd" clip-rule="evenodd" d="M3418.09 415.961V725.821C3418.09 727.819 3419.71 729.438 3421.71 729.438H3510.93C3512.93 729.438 3514.55 727.819 3514.55 725.821V415.961C3514.55 402.643 3525.34 391.847 3538.66 391.847H3655.61C3657.61 391.847 3659.23 390.228 3659.23 388.23V299.01C3659.23 297.012 3657.61 295.393 3655.61 295.393H3538.66C3472.07 295.393 3418.09 349.373 3418.09 415.961Z" fill="#0F172A"/>
<path fill-rule="evenodd" clip-rule="evenodd" d="M2375.18 299.01C2375.18 297.012 2376.8 295.393 2378.8 295.393H2609.58C2732.97 295.393 2833.34 395.072 2833.34 518.444C2833.34 641.815 2732.97 741.495 2609.58 741.495C2486.18 741.495 2385.82 641.815 2385.82 518.444C2385.82 473.87 2398.92 432.389 2421.47 397.584C2423.06 395.135 2421.33 391.847 2418.41 391.847H2378.8C2376.8 391.847 2375.18 390.228 2375.18 388.23V299.01ZM2609.58 391.847C2539.09 391.847 2482.27 448.71 2482.27 518.444C2482.27 588.177 2539.09 645.04 2609.58 645.04C2680.07 645.04 2736.88 588.177 2736.88 518.444C2736.88 448.71 2680.07 391.847 2609.58 391.847Z" fill="#0F172A"/>
<path fill-rule="evenodd" clip-rule="evenodd" d="M3930.51 645.042C4003.76 645.042 4063.13 585.663 4063.13 512.416C4063.13 439.17 4003.76 379.791 3930.51 379.791C3857.26 379.791 3797.88 439.17 3797.88 512.416C3797.88 585.663 3857.26 645.042 3930.51 645.042ZM4159.59 512.416C4159.59 385.899 4057.03 283.337 3930.51 283.337C3803.99 283.337 3701.43 385.899 3701.43 512.416C3701.43 638.934 3803.99 741.496 3930.51 741.496C3996.27 741.496 4022.93 716.561 4057.45 691.275C4059.82 689.538 4063.13 691.238 4063.13 694.177V731.851C4063.13 733.848 4064.75 735.468 4066.75 735.468H4155.97C4157.97 735.468 4159.59 733.848 4159.59 731.851V512.416Z" fill="#0F172A"/>
<path d="M1350.35 202.555C1350.35 200.557 1348.73 198.938 1346.73 198.938H1257.51C1255.51 198.938 1253.9 200.557 1253.9 202.555V608.869C1253.9 675.457 1307.88 729.438 1374.46 729.438H1491.41C1493.41 729.438 1495.03 727.818 1495.03 725.821V636.6C1495.03 634.602 1493.41 632.983 1491.41 632.983H1374.46C1361.15 632.983 1350.35 622.187 1350.35 608.869V395.464C1350.35 393.466 1351.97 391.847 1353.97 391.847H1491.41C1493.41 391.847 1495.03 390.227 1495.03 388.23V299.009C1495.03 297.011 1493.41 295.392 1491.41 295.392H1353.97C1351.97 295.392 1350.35 293.773 1350.35 291.775V202.555Z" fill="#0F172A"/>
<path d="M1163.47 289.364C1133.5 289.364 1109.21 313.655 1109.21 343.619C1109.21 373.584 1133.5 397.875 1163.47 397.875C1193.43 397.875 1217.72 373.584 1217.72 343.619C1217.72 313.655 1193.43 289.364 1163.47 289.364Z" fill="#0F172A"/>
<path fill-rule="evenodd" clip-rule="evenodd" d="M1917.02 385.82C1890.38 385.82 1868.79 407.412 1868.79 434.047V596.814C1868.79 676.72 1804.02 741.496 1724.11 741.496C1644.21 741.496 1579.43 676.72 1579.43 596.814V299.011C1579.43 297.013 1581.05 295.394 1583.05 295.394H1672.27C1674.26 295.394 1675.88 297.013 1675.88 299.011V596.814C1675.88 623.449 1697.48 645.041 1724.11 645.041C1750.75 645.041 1772.34 623.449 1772.34 596.814V434.047C1772.34 354.142 1837.11 289.365 1917.02 289.365C1996.93 289.365 2061.7 354.142 2061.7 434.047V596.814C2061.7 623.449 2083.29 645.041 2109.93 645.041C2136.56 645.041 2158.16 623.449 2158.16 596.814V415.962C2158.16 349.374 2212.14 295.394 2278.72 295.394H2311.28C2313.28 295.394 2314.89 297.013 2314.89 299.011V388.231C2314.89 390.229 2313.28 391.848 2311.28 391.848H2278.72C2265.41 391.848 2254.61 402.644 2254.61 415.962V596.814C2254.61 676.72 2189.83 741.496 2109.93 741.496C2030.02 741.496 1965.25 676.72 1965.25 596.814V434.047C1965.25 407.412 1943.66 385.82 1917.02 385.82Z" fill="#0F172A"/>
<path d="M4237.96 180.853C4237.96 150.889 4262.25 126.598 4292.21 126.598C4322.18 126.598 4346.47 150.889 4346.47 180.853C4346.47 210.818 4322.18 235.109 4292.21 235.109C4262.25 235.109 4237.96 210.818 4237.96 180.853Z" fill="#0F172A"/>
<path d="M4243.99 725.822V299.01C4243.99 297.013 4245.61 295.393 4247.6 295.393H4336.82C4338.82 295.393 4340.44 297.013 4340.44 299.01V725.822C4340.44 727.819 4338.82 729.439 4336.82 729.439H4247.6C4245.61 729.439 4243.99 727.819 4243.99 725.822Z" fill="#0F172A"/>
<path fill-rule="evenodd" clip-rule="evenodd" d="M4647.89 379.791C4574.64 379.791 4521.29 439.17 4521.29 512.417V725.822C4521.29 727.82 4519.67 729.439 4517.68 729.439H4428.46C4426.46 729.439 4424.84 727.82 4424.84 725.822V512.417C4424.84 385.899 4527.4 283.337 4647.89 283.337C4774.41 283.337 4870.94 385.899 4870.94 512.417V725.822C4870.94 727.82 4869.32 729.439 4867.32 729.439H4778.1C4776.11 729.439 4774.49 727.82 4774.49 725.822V512.417C4774.49 439.17 4721.14 379.791 4647.89 379.791Z" fill="#0F172A"/>
<path d="M2903.27 476.245C2901.27 476.245 2899.65 474.626 2899.65 472.628L2899.65 130.215C2899.65 128.217 2901.27 126.598 2903.27 126.598H2992.49C2994.49 126.598 2996.11 128.217 2996.11 130.215L2996.11 326.57C2996.11 329.488 2999.39 331.218 3001.84 329.631C3036.65 307.076 3078.13 293.975 3122.7 293.975C3246.07 293.975 3345.75 394.34 3345.75 517.735C3345.75 641.13 3246.07 741.495 3122.7 741.495C3015.52 741.495 2926.22 665.742 2904.63 564.947C2904.15 562.724 2905.86 560.643 2908.14 560.643H2969.44C2989.84 560.643 3007.33 574.076 3019.02 590.803C3041.95 623.637 3079.9 645.041 3122.7 645.041C3192.44 645.041 3249.3 588.228 3249.3 517.735C3249.3 447.242 3192.44 390.429 3122.7 390.429C3079.52 390.429 3041.27 412.217 3018.41 445.549C3006.75 462.547 2989.13 476.245 2968.52 476.245L2903.27 476.245Z" fill="#0F172A"/>
</svg>
