<svg width="729" height="260" viewBox="0 0 729 260" fill="none" xmlns="http://www.w3.org/2000/svg" role="img" aria-label="NERK">
<path fill-rule="evenodd" clip-rule="evenodd" d="M108.412 24.6284C111.795 24.6284 114.538 27.3774 114.538 30.768V36.0072C114.538 37.0847 114.255 38.1431 113.717 39.0763L109.404 46.5649C108.413 48.2838 108.313 50.3765 109.135 52.1824L171.361 188.858C172.579 191.533 175.245 193.25 178.179 193.25H180.036C183.149 193.25 185.673 190.72 185.673 187.601C185.673 185.583 184.599 183.717 182.855 182.708L174.004 177.588C171.49 176.133 169.942 173.444 169.942 170.534V170.184C169.942 167.491 171.375 165.002 173.703 163.655C176.031 162.308 178.899 162.308 181.227 163.655L193.881 170.977C197.69 173.181 200.037 177.253 200.037 181.661V188.467C200.037 191.624 199.418 194.752 198.216 197.671L183.816 232.636C182.87 234.934 180.634 236.432 178.153 236.432H155.694C153.506 236.432 151.483 235.263 150.389 233.363L121.727 183.614C120.275 181.094 117.592 179.541 114.688 179.541H69.9843C67.0802 179.541 64.3972 181.094 62.9452 183.614L34.2834 233.363C33.1891 235.263 31.1664 236.432 28.9779 236.432H6.13542C1.41952 236.432 -1.52809 231.317 0.829861 227.224L67.437 111.611C68.9984 108.9 67.0467 105.512 63.9239 105.511H35.4301C31.0529 105.511 27.0077 103.172 24.8189 99.3731L18.6868 88.7278C15.3034 82.8551 17.3113 75.345 23.1715 71.9544L103.546 25.4511C104.477 24.9124 105.533 24.6284 106.608 24.6284H108.412ZM76.9187 56.1589C73.5191 56.1591 70.7636 58.9217 70.7636 62.3287C70.7637 65.7356 73.5191 68.4968 76.9187 68.497C80.3185 68.497 83.0752 65.7357 83.0753 62.3287C83.0753 58.9216 80.3185 56.1589 76.9187 56.1589Z" fill="black"/>
<path d="M234.821 206V54.1072H260.426L324.221 99.4581V54.1072H349.826V206H324.221V132.441L260.426 85.7877V206H234.821ZM362.769 206V54.1072H471.915V80.146H389.893V108.355H456.725V134.393H389.893V179.961H471.915V206H362.769ZM483.936 206V54.1072H558.146C578.977 54.1072 595.902 71.0324 595.902 91.8634V105.534C595.902 123.978 582.666 138.733 565.09 141.988L595.902 206H564.222L535.362 142.639H511.059V206H483.936ZM511.059 116.383H558.146C564.439 116.383 568.779 111.609 568.779 105.317V91.8634C568.779 85.7877 564.439 80.797 558.146 80.797H511.059V116.383ZM604.678 206V54.1072H631.802V110.525L686.267 54.1072H725.108L663.483 116.166L727.495 206H691.908L643.303 136.563L631.802 148.064V206H604.678Z" fill="black"/>
</svg>
