<svg width="307" height="324" viewBox="0 0 307 324" fill="none" xmlns="http://www.w3.org/2000/svg">
<path d="M159.818 178.988C150.403 178.988 142.771 171.356 142.771 161.942C142.771 152.527 150.403 144.895 159.818 144.895C169.232 144.895 176.864 152.527 176.864 161.942C176.864 171.356 169.232 178.988 159.818 178.988Z" fill="#0F172A"/>
<path fill-rule="evenodd" clip-rule="evenodd" d="M12.7916 154.88C12.7916 145.76 17.6481 137.332 25.5374 132.758L41.8086 123.326C57.5871 114.179 67.3001 97.3207 67.3001 79.0826V60.2645C67.3001 51.1319 72.1708 42.6927 80.0785 38.1241L134.17 6.87327C150.032 -2.29109 169.604 -2.29109 185.466 6.87327L281.353 62.2711C297.131 71.387 306.844 88.1876 306.844 106.364V217.52C306.844 235.696 297.131 252.497 281.353 261.613L185.466 317.011C169.604 326.175 150.032 326.175 134.17 317.011L38.2831 261.613C22.5046 252.497 12.7916 235.696 12.7916 217.52V154.88ZM247.702 111.202C240.641 98.9722 225.003 94.7819 212.773 101.843L172.602 125.035C164.691 129.603 154.944 129.603 147.033 125.035L106.862 101.843C94.6323 94.7819 78.9941 98.9722 71.9332 111.202C64.8723 123.432 69.0625 139.07 81.2924 146.131L121.463 169.323C129.374 173.891 134.248 182.332 134.248 191.467V237.852C134.248 251.974 145.696 263.422 159.817 263.422C173.939 263.422 185.387 251.974 185.387 237.852V191.467C185.387 182.332 190.261 173.891 198.172 169.323L238.343 146.131C250.572 139.07 254.763 123.432 247.702 111.202Z" fill="#0F172A"/>
<path d="M0 80.9724C0 66.8506 11.448 55.4027 25.5698 55.4027C39.6916 55.4027 51.1396 66.8506 51.1396 80.9724C51.1396 95.0942 39.6916 106.542 25.5698 106.542C11.448 106.542 0 95.0942 0 80.9724Z" fill="#0F172A"/>
<path d="M21.3498 80.4247H26.0534C28.0883 80.4247 29.6895 79.0244 29.6895 77.1676C29.6895 75.402 28.2551 73.9713 25.9867 73.9713H21.3498V80.4247Z" fill="#A1E101"/>
<path fill-rule="evenodd" clip-rule="evenodd" d="M0 80.9724C0 66.8506 11.448 55.4027 25.5698 55.4027C39.6916 55.4027 51.1396 66.8506 51.1396 80.9724C51.1396 95.0942 39.6916 106.542 25.5698 106.542C11.448 106.542 0 95.0942 0 80.9724ZM17.0465 70.3184H26.6539C31.4243 70.3184 34.093 72.8449 34.093 76.1629C34.093 78.6286 32.5585 80.455 30.2234 80.7898V81.3986C31.858 81.8552 33.8929 83.2859 33.8929 86.4212V91.6265H29.5228V86.9083C29.5228 85.2341 28.3886 84.0773 26.1202 84.0773H21.3498V91.6265H17.0465V70.3184Z" fill="#A1E101"/>
<path d="M159.818 178.988C150.403 178.988 142.771 171.356 142.771 161.942C142.771 152.527 150.403 144.895 159.818 144.895C169.232 144.895 176.864 152.527 176.864 161.942C176.864 171.356 169.232 178.988 159.818 178.988Z" fill="#A1E101"/>
</svg>
